<?xml version="1.0" encoding="UTF-8" standalone="no"?>
<svg
   width="20"
   height="20"
   viewBox="0 0 20 20"
   version="1.1"
   id="svg18"
   sodipodi:docname="element-critical.svg"
   inkscape:version="1.2.2 (b0a8486541, 2022-12-01)"
   xmlns:inkscape="http://www.inkscape.org/namespaces/inkscape"
   xmlns:sodipodi="http://sodipodi.sourceforge.net/DTD/sodipodi-0.dtd"
   xmlns="http://www.w3.org/2000/svg"
   xmlns:svg="http://www.w3.org/2000/svg">
  <defs
     id="defs22" />
  <sodipodi:namedview
     id="namedview20"
     pagecolor="#ffffff"
     bordercolor="#666666"
     borderopacity="1.0"
     inkscape:showpageshadow="2"
     inkscape:pageopacity="0.0"
     inkscape:pagecheckerboard="0"
     inkscape:deskcolor="#d1d1d1"
     showgrid="false"
     inkscape:zoom="38.05"
     inkscape:cx="4.5597898"
     inkscape:cy="10"
     inkscape:window-width="1920"
     inkscape:window-height="981"
     inkscape:window-x="0"
     inkscape:window-y="27"
     inkscape:window-maximized="1"
     inkscape:current-layer="svg18" />
  <rect
     width="20"
     height="20"
     fill="none"
     id="rect14" />
  <path
     fill="#000"
     d="M15.794 1.29a1 1 0 0 1 1.414 0l1.503 1.503a1 1 0 0 1 0 1.414L17.208 5.71a1 1 0 0 1-1.414 0L14.29 4.207a1 1 0 0 1 0-1.414zM5.5 17H7v-4H3v1.5A2.5 2.5 0 0 0 5.5 17M7 8v4H3V8zm5 4H8V8h4zm-4 1h4v4H8zm5-5v4h4V8zm0 5h4v1.5a2.5 2.5 0 0 1-2.5 2.5H13zM3 7h4V3H5.5A2.5 2.5 0 0 0 3 5.5zm5 0V3h4v4z"
     id="path16" />
  <circle
     style="fill:#ff0000;fill-opacity:1;fill-rule:evenodd;stroke-width:0.0729171"
     id="path280"
     cx="15.5"
     cy="15.5"
     r="3.5" />
</svg>
