<svg xmlns="http://www.w3.org/2000/svg" width="1em" height="1em" viewBox="0 0 24 24"><g fill="none" stroke="#e5e5e5" stroke-linecap="round" stroke-linejoin="round" stroke-width="1.5"><path d="M20.5 15.8V8.2a1.91 1.91 0 0 0-.944-1.645l-6.612-3.8a1.88 1.88 0 0 0-1.888 0l-6.612 3.8A1.9 1.9 0 0 0 3.5 8.2v7.602a1.91 1.91 0 0 0 .944 1.644l6.612 3.8a1.88 1.88 0 0 0 1.888 0l6.612-3.8A1.9 1.9 0 0 0 20.5 15.8"/><path d="M13.856 13.85a3.429 3.429 0 1 0-4.855-4.842a3.429 3.429 0 0 0 4.855 4.842m0 0L16 16"/></g></svg>