<?xml version="1.0" encoding="UTF-8" standalone="no"?>
<svg
   width="32"
   height="32"
   viewBox="0 0 32 32"
   version="1.1"
   id="svg3800"
   sodipodi:docname="annotation-unannotated-critical.svg"
   inkscape:version="1.2.2 (b0a8486541, 2022-12-01)"
   xmlns:inkscape="http://www.inkscape.org/namespaces/inkscape"
   xmlns:sodipodi="http://sodipodi.sourceforge.net/DTD/sodipodi-0.dtd"
   xmlns="http://www.w3.org/2000/svg"
   xmlns:svg="http://www.w3.org/2000/svg">
  <defs
     id="defs3804" />
  <sodipodi:namedview
     id="namedview3802"
     pagecolor="#ffffff"
     bordercolor="#666666"
     borderopacity="1.0"
     inkscape:showpageshadow="2"
     inkscape:pageopacity="0.0"
     inkscape:pagecheckerboard="0"
     inkscape:deskcolor="#d1d1d1"
     showgrid="false"
     inkscape:zoom="23.78125"
     inkscape:cx="7.2956636"
     inkscape:cy="16"
     inkscape:window-width="1920"
     inkscape:window-height="981"
     inkscape:window-x="0"
     inkscape:window-y="27"
     inkscape:window-maximized="1"
     inkscape:current-layer="g3834" />
  <rect
     width="32"
     height="32"
     fill="none"
     id="rect3794" />
  <path
     fill="#e5e5e5"
     d="M28 30H4a2 2 0 0 1-2-2V4a2 2 0 0 1 2-2h24a2 2 0 0 1 2 2v24a2 2 0 0 1-2 2M4 4v24h24V4Z"
     id="path3796" />
  <path
     fill="#e5e5e5"
     d="M13 7h2v7h-2zM8 7h2v7H8zm14 7h-2a2 2 0 0 1-2-2V9a2 2 0 0 1 2-2h2a2 2 0 0 1 2 2v3a2 2 0 0 1-2 2m-2-5v3h2V9zm2 9h2v7h-2zM8 18h2v7H8zm9 7h-2a2 2 0 0 1-2-2v-3a2 2 0 0 1 2-2h2a2 2 0 0 1 2 2v3a2 2 0 0 1-2 2m-2-5v3h2v-3z"
     id="path3798" />
  <g
     id="g3834"
     transform="matrix(0.06228732,0,0,0.06228732,12.293795,7.5459296)">
    <circle
       style="fill:#ff000f;fill-opacity:1;fill-rule:evenodd;stroke-width:1.88977"
       id="path280"
       cx="198.37431"
       cy="274.59955"
       r="90.708664" />
  </g>
</svg>
